# xmcd
#
# Track frame offsets:
#	150
#	17216
#	28703
#	35852
#	48432
#	59314
#	67782
#	80478
#	91579
#	98600
#	120476
#	132632
#	144510
#	157602
#	163603
#	173232
#	183763
#	196839
#	210431
#	225115
#
# Disc length: 3231 seconds
#
# Revision: 1
# Processed by: cddbd v1.5.2PL0 Copyright (c) Steve Scherf et al.
# Submitted via: audiograbber 1.82.02
#
DISCID=f30c9d14
DTITLE=Various Artist - Country Roads Vol 8
DYEAR=1999
DGENRE=Country
TTITLE0=Everly Brothers - Crying In The Rain
TTITLE1=Guy Mitchell - Heartaches By The Number
TTITLE2=Barbara Mandrell - Kentucky Means Paradise
TTITLE3=George Jones - I Can't Escape From You
TTITLE4=Patsy Cline - Stop, Look And Listen
TTITLE5=Waylon Jennings - Abilene
TTITLE6=Kitty Wells - Making Believe
TTITLE7=John Denver - Mother Nature
TTITLE8=Marty Robbins - Maybelline
TTITLE9=Willie Nelson - City Of New Orleans
TTITLE10=Lynn Anderson - How Can I Unlove You
TTITLE11=Frankie Lane - High Noon
TTITLE12=Donna Fargo - Daddy
TTITLE13=Jim Reeves - Have I Told You Lately That I Love You
TTITLE14=Jerry Lee Lewis - Walk Right In
TTITLE15=Johnny Cash - You Win Again
TTITLE16=Stut Stevens - Love Me Tender
TTITLE17=Freddie Fender - Baby, I Want To Love You
TTITLE18=Johnny Lee - Bet Your Heart On Me
TTITLE19=Kenny Rogers - Lady
EXTD=
EXTT0=
EXTT1=
EXTT2=
EXTT3=
EXTT4=
EXTT5=
EXTT6=
EXTT7=
EXTT8=
EXTT9=
EXTT10=
EXTT11=
EXTT12=
EXTT13=
EXTT14=
EXTT15=
EXTT16=
EXTT17=
EXTT18=
EXTT19=
PLAYORDER=
